<svg enable-background="new 0 0 495.8 126.9" height="126.9" viewBox="0 0 495.8 126.9" width="495.8" xmlns="http://www.w3.org/2000/svg"><g fill="#003d6d"><path d="m495.3 63.9v-5.5h-21.7v33.8h21.7v-5.5h-15.8v-9.3h11.5l2-5.5h-13.5v-8z"/><path d="m117.2 63.9h11.2v28.3h5.9v-28.3h11.5v-5.5h-28.6z"/><path d="m175.9 71.9h-17.6v-13.5h-5.9v33.8h5.9v-14.8h17.6v14.8h5.9v-33.8h-5.9z"/><path d="m221.9 92.2h23v-5.5h-17.1v-9.3h13.4l2.4-5.5h-15.8v-8h17.1v-5.5h-23z"/><path d="m295.3 58.2c-6 0-10.1.7-10.1.7v33l1.1.1c1.9.2 5.6.5 9.3.5 13.3 0 19.3-9 19.3-17.8 0-8.3-6.1-16.5-19.6-16.5m.7 28.9c-2.2 0-3.9-.1-5-.2v-23.2c1.2-.1 3.2-.2 4.6-.2 8.4 0 13.1 3.9 13.1 11.1 0 7.8-4.7 12.5-12.7 12.5"/><path d="m342 80-19.1-22.3h-2.3v34.5h5.9v-22.3l18.2 22.3h3.1v-33.8h-5.8z"/><path d="m355.5 92.2h22.2v-5.5h-16.3v-9.3h12.1l2.4-5.5h-14.5v-8h16.3v-5.5h-22.2z"/><path d="m384.3 92.2h22.2v-5.5h-16.3v-9.3h12.1l2.4-5.5h-14.5v-8h16.3v-5.5h-22.2z"/><path d="m422.5 58.2c-5.8 0-9.6.7-9.6.7v33s3.9.6 9.9.6c13.3 0 19.3-9 19.3-17.8 0-8.3-6.1-16.5-19.6-16.5m.7 28.9c-2 0-3.4-.1-4.5-.2v-23.2c1.1-.1 2.6-.2 4-.2 8.4 0 13.1 3.9 13.1 11.1.1 7.8-4.6 12.5-12.6 12.5"/><path d="m453.5 58.4h-5.9v33.8h19.9l2-5.5h-16z"/><path d="m266.2 57.8h-2.1l-15 34.4h6.2l9.8-23.9 10.2 23.9h6.4z"/><path d="m214.4 68.3c0-6.4-4.9-10.3-13.6-10.1-8.8.2-11.8.7-11.8.7v33.3h5.9v-28.3c1.3-.1 5-.2 6.5-.2 4.6 0 6.9 1.6 6.9 4.7 0 3.7-2.8 5.8-7.9 5.8-.3 0-2.4 0-2.4 0l11.9 18h7l-9.8-14c4.4-1.7 7.3-5.6 7.3-9.9"/><path d="m164.8 13.9c-9.8 0-17.4 7.8-17.4 17.8s7.5 17.8 17.1 17.8c9.8 0 17.4-7.8 17.4-17.8s-7.5-17.8-17.1-17.8m-.1 30.1c-6.4 0-11.1-5.2-11.1-12.3s4.7-12.3 11.1-12.3c6.3 0 11 5.3 11 12.3s-4.7 12.3-11 12.3"/><path d="m193.1 14.4h-5.9v34.6h20.5l2.4-5.5h-17z"/><path d="m125.8 22.6c2.2-2.1 5.1-3.2 8.3-3.2 2.8 0 5.4.9 7.6 2.6l.4.3 2.9-5.2-.3-.2c-2-1.3-4.2-2.1-6.5-2.6-2.6-.5-5.3-.5-7.8 0-5 1-9.3 3.7-12 7.8-1.9 2.9-3 6.2-3 9.7 0 3.6 1.1 7.1 3.1 10 3.4 4.9 9.2 7.8 15.5 7.8 3.8 0 7.5-1 10.6-2.9l.3-.2-2.9-5.1-.4.3c-2.1 1.6-4.7 2.5-7.4 2.5-3.1 0-5.8-1-8-2.8-2.9-2.5-4.6-6-4.6-9.5 0-4.7 2.6-7.8 4.2-9.3"/><path d="m323.3 14.4h5.8v34.6h-5.8z"/><path d="m351.1 13.9h-2.2l-15.4 35.1h6.2l10.2-23.9 10.2 23.7.1.2h6.4z"/><path d="m234.6 36.2c0 5.1-2.4 7.8-7.2 7.9h-.9c-.4 0-.8 0-.8 0-4.8-.1-7.2-2.7-7.2-7.8v-21.9h-5.8v21.8c0 8.1 5.8 13.3 13.9 13.3 8 0 14-5.2 14-13.3v-21.8h-5.9v21.8z"/><path d="m313.1 31.1c2.6-1.6 3.8-4 3.8-7.4 0-4.7-3.8-9.5-12.4-9.5-8.4 0-14.4.6-14.4.6h-.4v33.8h.4c.1 0 7.9.6 14.7.6 8.5 0 12.9-5.1 12.9-10.2 0-3.6-1.6-6.3-4.6-7.9m-7.8 12.8c-.9 0-5.8-.1-8.1-.2-.2 0-.5 0-.8 0-.2 0-.5 0-.8 0v-9.7h1 .5 7.2c5 0 7.2 2.5 7.2 4.8.2 3.1-2.3 5.1-6.2 5.1m-1-15.1c-.8 0-5.1 0-7.2 0h-.7c-.3 0-.6 0-.9 0v-9h.8.8c2.2-.1 6.8-.2 7.6-.2 2.8 0 6.1.8 6.1 4.6.1 2.9-2.3 4.6-6.5 4.6"/><path d="m265.1 40.9-15.4-26.5h-3l.1 34.6h5.9v-16.9l11.1 16.9h2.7l10.9-17.9.1 17.9h5.9l.1-34.6h-3z"/></g><g fill="#4c7799"><path d="m122.1 126.3h-2.3v-16.7h2.3z"/><path d="m141.8 126.3h-1.8l-.1-.1-10-12.7v12.8h-2.3v-16.7h2.1l9.8 12.5v-12.5h2.3z"/><path d="m154.5 126.5h-1.9l-.1-.1-7.1-16.6h2.6l5.6 13.6 5.6-13.6h2.5z"/><path d="m177.5 126.3h-12.3v-16.7h12.2v2.1h-9.9v5.1h8.8v2.1h-8.8v5.2h10z"/><path d="m188.3 126.6c-2.6 0-4.7-.8-6.8-2.7l-.2-.2 1.4-1.7.2.2c1.7 1.6 3.3 2.2 5.4 2.2 2 0 3.4-1 3.4-2.5 0-1.7-1.4-2.3-4-2.8-3.4-.7-5.6-1.8-5.6-4.9 0-2.7 2.3-4.7 5.6-4.7 2.3 0 4.1.6 5.8 2l.2.1-1.4 1.8-.2-.2c-1.4-1.2-2.9-1.7-4.5-1.7-1.9 0-3.2 1-3.2 2.4 0 1.3.7 2.2 4.2 2.9 3.8.8 5.5 2.3 5.5 4.8 0 3-2.4 5-5.8 5z"/><path d="m204.6 126.3h-2.3v-14.5h-5.4v-2.2h13.2v2.2h-5.4v14.5z"/><path d="m230.6 126.3h-2.3v-12.6l-5.5 8.1h-.3l-5.5-8.1v12.6h-2.3v-16.7h2.2l5.8 8.6 5.8-8.6h2.2v16.7z"/><path d="m248 126.3h-12.3v-16.7h12.2v2.1h-9.9v5.1h8.8v2.1h-8.8v5.2h10z"/><path d="m266.6 126.3h-1.8l-.1-.1-10-12.7v12.8h-2.3v-16.7h2.1l9.8 12.5v-12.5h2.3z"/><path d="m278.3 126.3h-2.3v-14.5h-5.4v-2.2h13.2v2.2h-5.4v14.5z"/><path d="m293 126.6c-2.6 0-4.7-.8-6.8-2.7l-.2-.2 1.4-1.7.2.2c1.7 1.6 3.3 2.2 5.4 2.2 2 0 3.4-1 3.4-2.5 0-1.7-1.4-2.3-4-2.8-3.4-.7-5.6-1.8-5.6-4.9 0-2.7 2.3-4.7 5.6-4.7 2.3 0 4.1.6 5.8 2l.2.1-1.4 1.8-.2-.2c-1.4-1.2-2.9-1.7-4.5-1.7-1.9 0-3.2 1-3.2 2.4 0 1.3.7 2.2 4.2 2.9 3.8.8 5.5 2.3 5.5 4.8 0 3-2.4 5-5.8 5z"/></g><path d="m76.6 68-14.9 14.9 6.2 23.3 14.8-14.9z" fill="#33648a"/><path d="m106.4 67.5-13.9-53.1-38.6 38.8 5 18.9 22.8-22.9 9 34.1z" fill="#33bef2"/><path d="m24.4 45.4 14.8-15-23.8-6.3-14.6 15.1z" fill="#668ba7"/><path d="m61.7 82.9-29.5-7.8-7.8-29.7-23.6-6.2 14 53 53.1 14z" fill="#003d6d"/><path d="m35.2 48.3 4.9 18.8 18.8 5-5-18.9z" fill="#00aeef"/><path d="m92.5 14.4-53-13.9-15.8 15.7 34.3 9.1-22.8 23 18.7 4.9z" fill="#66cef6"/><path d="m309.2 111.4c-.3-.5-.7-.9-1.2-1.2s-1.1-.4-1.6-.4c-.6 0-1.1.2-1.7.4-.5.3-.9.7-1.2 1.2s-.4 1.1-.4 1.7.1 1.1.4 1.6.7.9 1.2 1.2 1.1.4 1.7.4 1.1-.1 1.6-.4.9-.7 1.2-1.2.4-1.1.4-1.7c.1-.6-.1-1.1-.4-1.6zm-.4 3c-.3.4-.6.8-1 1s-.9.4-1.4.4-1-.1-1.4-.4-.8-.6-1-1c-.3-.4-.4-.9-.4-1.4s.1-1 .4-1.4.6-.8 1-1c.4-.3.9-.4 1.4-.4s1 .1 1.4.4.8.6 1 1 .4.9.4 1.4-.2 1-.4 1.4z" fill="#4c7799"/><path d="m307.9 112.3c0-.3-.1-.6-.4-.8-.2-.2-.6-.3-.9-.3h-1.6v3.5h.6v-1.4h.9l.6 1.4h.7l-.7-1.5c.6-.1.8-.4.8-.9zm-.8.4c-.1.1-.3.2-.5.2h-.9v-1.1h.9c.5 0 .7.2.7.5 0 .2-.1.3-.2.4z" fill="#4c7799"/></svg>