<?xml version="1.0" encoding="UTF-8"?>
<svg xmlns:xodm="http://www.corel.com/coreldraw/odm/2003" xmlns="http://www.w3.org/2000/svg" xmlns:xlink="http://www.w3.org/1999/xlink" version="1.1" id="Layer_1" x="0px" y="0px" viewBox="0 0 2500 833" style="enable-background:new 0 0 2500 833;" xml:space="preserve">
<style type="text/css">
	.st0{fill:#F7A600;}
</style>
<g id="Layer_x0020_1">
	<g id="_2498434179408">
		<g id="Layer_x0020_1_0">
			<g id="_3036754161648">
				<polygon class="st0" points="1781.6,642.2 1781.6,0 1910.7,0 1910.7,642.2     "></polygon>
				<path d="M277.3,832.9H0.6V190.8h265.6c129,0,204.3,70.4,204.3,180.4c0,71.3-48.3,117.2-81.8,132.6c39.9,18,91,58.6,91,144.3      C479.7,767.9,395.2,832.9,277.3,832.9L277.3,832.9z M256,302.7H129.6v147.9H256c54.8,0,85.5-29.8,85.5-74S310.8,302.7,256,302.7      L256,302.7z M264.3,563.3H129.6v157.8h134.6c58.6,0,86.4-36.1,86.4-79.4C350.6,598.4,322.7,563.3,264.3,563.3z"></path>
				<polygon points="873.4,569.5 873.4,832.9 745.2,832.9 745.2,569.5 546.5,190.8 686.8,190.8 810.2,449.6 931.9,190.8       1072.1,190.8     "></polygon>
				<path d="M1438,832.9h-276.7V190.8h265.6c129,0,204.3,70.4,204.3,180.4c0,71.3-48.3,117.2-81.8,132.6c39.9,18,91,58.6,91,144.3      C1640.4,767.9,1556,832.9,1438,832.9L1438,832.9z M1416.7,302.7h-126.3v147.9h126.3c54.8,0,85.5-29.8,85.5-74      C1502.1,332.4,1471.4,302.7,1416.7,302.7z M1425,563.3h-134.6v157.8H1425c58.6,0,86.4-36.1,86.4-79.4      C1511.4,598.4,1483.5,563.3,1425,563.3L1425,563.3z"></path>
				<polygon points="2326.7,302.7 2326.7,833 2197.6,833 2197.6,302.7 2024.9,302.7 2024.9,190.8 2499.4,190.8 2499.4,302.7     "></polygon>
			</g>
		</g>
	</g>
</g>
</svg>
