<svg version="1.1" id="Layer_1" xmlns="http://www.w3.org/2000/svg" xmlns:xlink="http://www.w3.org/1999/xlink" x="0px" y="0px" viewBox="-571.9 87 598.4 126.8" style="enable-background:new -571.9 87 598.4 126.8;" xml:space="preserve">
 <style type="text/css">
  .st0{fill:#96151D;}
 </style>
 <title>
  logo/white
 </title>
 <desc>
  Created with Sketch.
 </desc>
 <g id="_x30_214">
  <g id="L_PDP_opt1" transform="translate(-80.000000, -76.000000)">
   <g id="NAV">
    <g id="Nav-bar-L" transform="translate(0.000000, 42.000000)">
     <g id="Logo_x2F_oldred" transform="translate(80.000000, 34.000000)">
      <path id="Clip-2" class="st0" d="M-346.3,179.8v0.8h-29.1v-11.3l0.2,0h-0.2c0,0,0-29.7,0-29.7c-0.1-1.7,0.6-9.5-8.2-9.4
						c0,0-9,0.1-8.8,11v0l0,29.4c0.3,9.1,5.7,9.2,5.7,9.2v0.8h-29.4v0h-16.7c-0.6,0.1-21.1,0.7-21.9-18.3V152c0,0-8.1,1.8-10.6,3.7
						c0,0-6.5,4.1-2.2,11.2c0,0,3.2,5.6,13.5,3.5l-5,10.2h-9.9c0,0-23.1,0.5-25.8-16.5c0-0.1-2.1-13.3,13.7-18.7
						c0,0,5.4-1.9,15.7-3.7c0.1,0,8.8-1.2,9.6-5.9c0.2-0.8,0.1-1.8-0.3-2.8c0.1,0.4-3.9-10.3-28.9,0.5c0.1,0.1,5.1-15.6,5.1-15.6
						s23.5-6.9,39.9,3.2c-0.1,0.1,8.6,4.7,8.4,19.2c0-0.1,0.3,20,0.3,20c0,0.3,0,10.2,9.8,10.8c0,0.1,3.5,0.1,5.5,0.1v-43.6
						c0-0.2,0.5-9.3-5.5-9.7v-0.8l29.3-1.1l0,7.4c1.6-1.6,8.1-7.3,17.6-7.5c0,0,22.8-0.8,22.8,21.5c0,0,0,32.2,0,32.2
						C-352.2,179.6-346.3,179.8-346.3,179.8z">
      </path>
      <path id="Clip-5" class="st0" d="M-571.9,88.1v-1h31.8l22.8,66.6l16.9-53.5c0,0,3.4-9-5.8-12.6V87h25.5l-32.2,94.2l-13.4-5.2
						c0,0-10.8-3.2-16.6-19.5l-20.9-57.8C-563.8,98.8-566.4,89.5-571.9,88.1z">
      </path>
      <path id="Clip-9" class="st0" d="M-5.1,169.2c-0.1,11.2,5.8,10.6,5.8,10.6v0.8l-29.9,0v0l0,0v-40.2l0-0.8
						c0,0.4,0-10.3-9.3-10.4c-0.1,0.1-10.9-1-10.9,19.2c-0.1,0.1-0.1,23.7,18.2,20.7c0,0.1-6.4,11.5-6.4,11.5s-14.9,5.1-27.2-8
						c0,0-9.4-8.1-9.4-24.1c0.1,0.1-0.3-15,9.4-24.6C-65,124-50,107-29.2,120.1V98.9c0-0.2,0.5-9.3-5.5-9.7v-0.8l29.6-1.1
						L-5.1,169.2z">
      </path>
      <path id="Clip-12" class="st0" d="M-94.1,124c6.5-12.2,19-8.4,19-8.4v16c-19.8-3.3-18.9,11.6-19,11.5h0l0,26.1
						c-0.1,11.1,5.5,10.6,5.8,10.6v0.8h-29.6v0H-135c-0.6,0.1-21.1,0.7-21.9-18.3V152c0,0-8.1,1.8-10.6,3.7c0,0-6.5,4.1-2.2,11.2
						c0,0,3.2,5.6,13.4,3.5l-5,10.2h-9.9c0,0-23.1,0.5-25.8-16.5c0-0.1-2.1-13.3,13.7-18.7c0,0,5.4-1.9,15.7-3.7
						c0.1,0,8.8-1.2,9.6-5.9c0.2-0.8,0.2-1.8-0.3-2.8c0.1,0.4-3.9-10.3-28.9,0.5c0.1,0.1,5.2-15.6,5.2-15.6s23.5-6.9,39.9,3.2
						c-0.1,0.1,8.5,4.7,8.4,19.2c0-0.1,0.3,20,0.3,20c0,0.3,0,10.2,9.8,10.8c0,0.1,3.9,0.1,5.8,0.1v-5.2l0-38.5
						c0-0.2,0.5-9.3-5.5-9.7v-0.8l29.3-1.2V124z">
      </path>
      <path id="Clip-15" class="st0" d="M-312.4,150.9c9,0,7.9-12.5,7.9-12.6c-0.2-10.7-7.9-10.4-7.9-10.4c-8.5,0-8.2,10.7-8.3,10.6
						C-321.6,150.3-313.1,151-312.4,150.9z M-245.5,115.5v41.6c0,0-0.2,9,8,8.9c0-0.1,8.7,1.3,9-11.1c0,0,0,0,0,0l0-7.6v-20.2
						c0-0.2,0.5-9.3-5.5-9.7v-0.8l29.3-1.1v53.6c0,0.2-0.5,10.3,5.8,10.6v0.8h-29.6l0-7.6c-1.2,1.2-7.8,7.5-17.8,7.7
						c0,0-23.2,0.8-23.2-21.6c-0.1-0.2,0-23.8,0-31.9h-17.9c0.7,0.6,1.5,1.7,1.6,1.7c10,12.8,0.3,23.5,0.2,23.6
						c-6.4,9-27.2,11.5-27.2,11.5l-1.3,0.1c-7,0.2-4.8,3.8-4.8,3.8c1,2.4,6.1,2,6.1,2h11.9c24.1-0.1,26.6,15.7,26.7,15.7
						c4,22.1-18.3,28.7-40.5,28.1c-22.1,0.1-30.2-9.5-30.1-9.4c-5.6-6.5-2.6-15.5,7.3-18.3c7.3-2,16,0,16,0
						c-6.6,0.9-5.4,7.6-5.4,7.7c2.2,7.9,13.5,8,14.2,8c14.4-0.7,14.8-7.7,14.8-11.2c0-4.5-3.8-7.2-3.8-7.2c-5.2-3.8-15.1-2.6-22-2.9
						c-9.6-0.5-12.1-9.6-12.6-12.4c-0.5-2.8,0.1-3.9,1.7-5c2.9-1.7,9.5-2.5,8.8-2.4l0.1,0c-0.1,0-0.2,0-0.2,0
						c-8.3-2.6-13.2-9.6-13.3-9.6c-10.5-15.1,1.7-26.9,1.7-26.9c7-6.8,16-8.3,24-8.7H-245.5z">
      </path>
      <path id="Clip-18" class="st0" d="M4.5,99c0,5.6,4.6,10.1,10.2,10.1c5.6,0,10.2-4.5,10.2-10.1c0-5.6-4.6-10.1-10.2-10.1
						C9.1,88.9,4.5,93.4,4.5,99z M2.9,99c0-6.5,5.3-11.7,11.8-11.7c6.5,0,11.8,5.3,11.8,11.7c0,6.5-5.3,11.7-11.8,11.7
						C8.2,110.8,2.9,105.5,2.9,99z">
      </path>
      <path id="Clip-21" class="st0" d="M12.1,99.7v6.2h-1.9V92.2h5c2.3,0,4.8,0.7,4.8,3.5c0,1.7-1,2.9-2.6,3.3v0
						c1.7,0.4,1.9,1.3,2.1,2.8c0.2,1.4,0.4,2.9,0.9,4.2h-2.1c-0.2-0.8-0.4-1.7-0.5-2.6c-0.2-1.2-0.2-2.4-0.8-3.1
						c-0.6-0.6-1.3-0.6-2.1-0.6H12.1z M12.1,98.1h3.2c2.1-0.1,2.6-1.1,2.6-2.1c0-1.1-0.5-2.1-2.6-2.1h-3.2V98.1z">
      </path>
     </g>
    </g>
   </g>
  </g>
 </g>
</svg>